<svg width="94" height="111" viewBox="0 0 94 111" fill="none" xmlns="http://www.w3.org/2000/svg">
<path d="M87.8 6V17.25H53.3V105H41.3V17.25H6.8V6H87.8Z" fill="#F02238"/>
<path d="M87.8 6H93.8V-3.8147e-06H87.8V6ZM87.8 17.25V23.25H93.8V17.25H87.8ZM53.3 17.25V11.25H47.3V17.25H53.3ZM53.3 105V111H59.3V105H53.3ZM41.3 105H35.3V111H41.3V105ZM41.3 17.25H47.3V11.25H41.3V17.25ZM6.8 17.25H0.8V23.25H6.8V17.25ZM6.8 6V-3.8147e-06H0.8V6H6.8ZM81.8 6V17.25H93.8V6H81.8ZM87.8 11.25H53.3V23.25H87.8V11.25ZM47.3 17.25V105H59.3V17.25H47.3ZM53.3 99H41.3V111H53.3V99ZM47.3 105V17.25H35.3V105H47.3ZM41.3 11.25H6.8V23.25H41.3V11.25ZM12.8 17.25V6H0.8V17.25H12.8ZM6.8 12H87.8V-3.8147e-06H6.8V12Z" fill="#173D58"/>
</svg>
