<svg width="84" height="111" viewBox="0 0 84 111" fill="none" xmlns="http://www.w3.org/2000/svg">
<path d="M6.2 105V6H41.45C53.15 6 61.7 8.45 67.1 13.35C72.5 18.25 75.2 24.9 75.2 33.3C75.2 38.3 73.75 42.85 70.85 46.95C67.95 50.95 63.85 53.5 58.55 54.6V54.75C64.45 55.85 69.1 58.55 72.5 62.85C76 67.05 77.75 71.85 77.75 77.25C77.75 85.65 74.6 92.4 68.3 97.5C62 102.5 53 105 41.3 105H6.2ZM18.2 49.5H41.6C55.6 49.5 62.6 44.1 62.6 33.3C62.6 22.6 55.6 17.25 41.6 17.25H18.2V49.5ZM18.2 93.75H44.15C51.25 93.75 56.5 92.3 59.9 89.4C63.4 86.5 65.15 82.45 65.15 77.25C65.15 71.95 63.4 67.9 59.9 65.1C56.5 62.2 51.25 60.75 44.15 60.75H18.2V93.75Z" fill="#EC3C1A"/>
<path d="M6.2 105H0.200001V111H6.2V105ZM6.2 6V-3.8147e-06H0.200001V6H6.2ZM67.1 13.35L63.0681 17.7934V17.7934L67.1 13.35ZM70.85 46.95L75.7077 50.4718L75.7282 50.4434L75.7485 50.4148L70.85 46.95ZM58.55 54.6L57.3307 48.7252L52.55 49.7174V54.6H58.55ZM58.55 54.75H52.55V59.7347L57.4503 60.6484L58.55 54.75ZM72.5 62.85L67.7935 66.5714L67.8413 66.6319L67.8907 66.6911L72.5 62.85ZM68.3 97.5L72.03 102.2L72.0527 102.182L72.0752 102.163L68.3 97.5ZM18.2 49.5H12.2V55.5H18.2V49.5ZM18.2 17.25V11.25H12.2V17.25H18.2ZM18.2 93.75H12.2V99.75H18.2V93.75ZM59.9 89.4L56.0719 84.7799L56.0389 84.8072L56.0063 84.835L59.9 89.4ZM59.9 65.1L56.0063 69.665L56.0781 69.7262L56.1518 69.7852L59.9 65.1ZM18.2 60.75V54.75H12.2V60.75H18.2ZM12.2 105V6H0.200001V105H12.2ZM6.2 12H41.45V-3.8147e-06H6.2V12ZM41.45 12C52.5134 12 59.2732 14.3499 63.0681 17.7934L71.1319 8.90664C64.1268 2.55013 53.7866 -3.8147e-06 41.45 -3.8147e-06V12ZM63.0681 17.7934C67.0193 21.3787 69.2 26.3092 69.2 33.3H81.2C81.2 23.4908 77.9807 15.1213 71.1319 8.90664L63.0681 17.7934ZM69.2 33.3C69.2 37.0531 68.1382 40.3936 65.9515 43.4852L75.7485 50.4148C79.3618 45.3063 81.2 39.5469 81.2 33.3H69.2ZM65.9923 43.4282C64.0566 46.0982 61.3189 47.8975 57.3307 48.7252L59.7693 60.4748C66.3811 59.1025 71.8434 55.8018 75.7077 50.4718L65.9923 43.4282ZM52.55 54.6V54.75H64.55V54.6H52.55ZM57.4503 60.6484C62.0702 61.5097 65.381 63.5203 67.7935 66.5714L77.2065 59.1286C72.819 53.5797 66.8298 50.1903 59.6497 48.8516L57.4503 60.6484ZM67.8907 66.6911C70.5043 69.8275 71.75 73.2726 71.75 77.25H83.75C83.75 70.4274 81.4957 64.2725 77.1093 59.0089L67.8907 66.6911ZM71.75 77.25C71.75 83.9156 69.3595 88.9228 64.5248 92.8365L72.0752 102.163C79.8405 95.8772 83.75 87.3844 83.75 77.25H71.75ZM64.5701 92.8003C59.719 96.6503 52.242 99 41.3 99V111C53.758 111 64.281 108.35 72.03 102.2L64.5701 92.8003ZM41.3 99H6.2V111H41.3V99ZM18.2 55.5H41.6V43.5H18.2V55.5ZM41.6 55.5C49.204 55.5 56.009 54.0623 61.0148 50.2007C66.3159 46.1113 68.6 40.1016 68.6 33.3H56.6C56.6 37.2984 55.3841 39.3887 53.6852 40.6993C51.691 42.2377 47.996 43.5 41.6 43.5V55.5ZM68.6 33.3C68.6 26.528 66.3014 20.5522 60.9934 16.4954C55.9906 12.6718 49.195 11.25 41.6 11.25V23.25C48.0051 23.25 51.7094 24.5032 53.7066 26.0296C55.3986 27.3228 56.6 29.3719 56.6 33.3H68.6ZM41.6 11.25H18.2V23.25H41.6V11.25ZM12.2 17.25V49.5H24.2V17.25H12.2ZM18.2 99.75H44.15V87.75H18.2V99.75ZM44.15 99.75C51.8842 99.75 58.8274 98.2009 63.7937 93.965L56.0063 84.835C54.1726 86.3991 50.6158 87.75 44.15 87.75V99.75ZM63.7281 94.0201C68.8115 89.8082 71.15 83.9482 71.15 77.25H59.15C59.15 80.9518 57.9885 83.1918 56.0719 84.7799L63.7281 94.0201ZM71.15 77.25C71.15 70.4986 68.8381 64.5667 63.6482 60.4148L56.1518 69.7852C57.9619 71.2333 59.15 73.4015 59.15 77.25H71.15ZM63.7937 60.535C58.8274 56.2991 51.8842 54.75 44.15 54.75V66.75C50.6158 66.75 54.1726 68.1009 56.0063 69.665L63.7937 60.535ZM44.15 54.75H18.2V66.75H44.15V54.75ZM12.2 60.75V93.75H24.2V60.75H12.2Z" fill="#173D58"/>
</svg>
