<svg width="90" height="113" viewBox="0 0 90 113" fill="none" xmlns="http://www.w3.org/2000/svg">
<path d="M83.95 6V68.1C83.95 80.8 80.6 90.4 73.9 96.9C67.2 103.3 57.6 106.5 45.1 106.5C32.7 106.5 23.1 103.3 16.3 96.9C9.6 90.4 6.25 80.8 6.25 68.1V6H18.25V65.1C18.25 75.4 20.4 83 24.7 87.9C29.1 92.8 35.9 95.25 45.1 95.25C54.3 95.25 61.05 92.8 65.35 87.9C69.75 83 71.95 75.4 71.95 65.1V6H83.95Z" fill="white"/>
<path d="M83.95 6H89.95V-3.8147e-06H83.95V6ZM73.9 96.9L78.0444 101.239L78.0612 101.223L78.0779 101.206L73.9 96.9ZM16.3 96.9L12.1221 101.206L12.1547 101.238L12.1878 101.269L16.3 96.9ZM6.25 6V-3.8147e-06H0.250001V6H6.25ZM18.25 6H24.25V-3.8147e-06H18.25V6ZM24.7 87.9L20.1902 91.8575L20.2128 91.8833L20.2357 91.9088L24.7 87.9ZM65.35 87.9L60.8857 83.8912L60.8628 83.9167L60.8402 83.9425L65.35 87.9ZM71.95 6V-3.8147e-06H65.95V6H71.95ZM77.95 6V68.1H89.95V6H77.95ZM77.95 68.1C77.95 79.78 74.886 87.5838 69.7221 92.5936L78.0779 101.206C86.314 93.2162 89.95 81.82 89.95 68.1H77.95ZM69.7556 92.5613C64.515 97.5673 56.6068 100.5 45.1 100.5V112.5C58.5932 112.5 69.885 109.033 78.0444 101.239L69.7556 92.5613ZM45.1 100.5C33.7146 100.5 25.7743 97.5775 20.4122 92.5308L12.1878 101.269C20.4257 109.023 31.6854 112.5 45.1 112.5V100.5ZM20.4779 92.5936C15.314 87.5838 12.25 79.78 12.25 68.1H0.250001C0.250001 81.82 3.88599 93.2162 12.1221 101.206L20.4779 92.5936ZM12.25 68.1V6H0.250001V68.1H12.25ZM6.25 12H18.25V-3.8147e-06H6.25V12ZM12.25 6V65.1H24.25V6H12.25ZM12.25 65.1C12.25 76.0544 14.5075 85.3818 20.1902 91.8575L29.2098 83.9425C26.2925 80.6182 24.25 74.7456 24.25 65.1H12.25ZM20.2357 91.9088C26.1692 98.5165 34.8954 101.25 45.1 101.25V89.25C36.9046 89.25 32.0308 87.0835 29.1643 83.8912L20.2357 91.9088ZM45.1 101.25C55.2933 101.25 64.0124 98.5208 69.8598 91.8575L60.8402 83.9425C58.0876 87.0792 53.3067 89.25 45.1 89.25V101.25ZM69.8143 91.9088C75.6309 85.4311 77.95 76.0815 77.95 65.1H65.95C65.95 74.7185 63.8691 80.5689 60.8857 83.8912L69.8143 91.9088ZM77.95 65.1V6H65.95V65.1H77.95ZM71.95 12H83.95V-3.8147e-06H71.95V12Z" fill="#173D58"/>
</svg>
