<svg width="109" height="111" viewBox="0 0 109 111" fill="none" xmlns="http://www.w3.org/2000/svg">
<path d="M8.9 105L47.45 6H61.7L100.1 105H87.35L76.85 77.55H32L21.5 105H8.9ZM49.85 30.75L36.35 66.3H72.5L59.15 31.2L54.5 17.4H54.2L49.85 30.75Z" fill="#E7358A"/>
<path d="M8.9 105L3.30893 102.823L0.124801 111H8.9V105ZM47.45 6V-3.8147e-06H43.3475L41.8589 3.82286L47.45 6ZM61.7 6L67.2939 3.83023L65.8083 -3.8147e-06H61.7V6ZM100.1 105V111H108.863L105.694 102.83L100.1 105ZM87.35 105L81.746 107.144L83.2211 111H87.35V105ZM76.85 77.55L82.454 75.4064L80.9789 71.55H76.85V77.55ZM32 77.55V71.55H27.8711L26.396 75.4064L32 77.55ZM21.5 105V111H25.6289L27.104 107.144L21.5 105ZM49.85 30.75L55.4592 32.8801L55.5102 32.7456L55.5548 32.6089L49.85 30.75ZM36.35 66.3L30.7408 64.1699L27.6535 72.3H36.35V66.3ZM72.5 66.3V72.3H81.2014L78.1081 64.167L72.5 66.3ZM59.15 31.2L53.4641 33.1159L53.5009 33.2252L53.5419 33.333L59.15 31.2ZM54.5 17.4L60.1859 15.4841L58.8097 11.4H54.5V17.4ZM54.2 17.4V11.4H49.8446L48.4952 15.5411L54.2 17.4ZM14.4911 107.177L53.0411 8.17713L41.8589 3.82286L3.30893 102.823L14.4911 107.177ZM47.45 12H61.7V-3.8147e-06H47.45V12ZM56.1061 8.16977L94.5061 107.17L105.694 102.83L67.2939 3.83023L56.1061 8.16977ZM100.1 99H87.35V111H100.1V99ZM92.954 102.856L82.454 75.4064L71.246 79.6936L81.746 107.144L92.954 102.856ZM76.85 71.55H32V83.55H76.85V71.55ZM26.396 75.4064L15.896 102.856L27.104 107.144L37.604 79.6936L26.396 75.4064ZM21.5 99H8.9V111H21.5V99ZM44.2408 28.6199L30.7408 64.1699L41.9592 68.4301L55.4592 32.8801L44.2408 28.6199ZM36.35 72.3H72.5V60.3H36.35V72.3ZM78.1081 64.167L64.7581 29.067L53.5419 33.333L66.8919 68.433L78.1081 64.167ZM64.8359 29.2841L60.1859 15.4841L48.8141 19.3159L53.4641 33.1159L64.8359 29.2841ZM54.5 11.4H54.2V23.4H54.5V11.4ZM48.4952 15.5411L44.1452 28.8911L55.5548 32.6089L59.9048 19.2589L48.4952 15.5411Z" fill="#173D58"/>
</svg>
