<svg width="104" height="115" viewBox="0 0 104 115" fill="none" xmlns="http://www.w3.org/2000/svg">
<path d="M52.1 6.5C61.5 6.5 69.6 8.6 76.4 12.8C83.3 16.9 88.6 22.75 92.3 30.35C96.1 37.95 98 47 98 57.5C98 68 96.1 77.05 92.3 84.65C88.6 92.25 83.3 98.15 76.4 102.35C69.6 106.45 61.5 108.5 52.1 108.5C42.7 108.5 34.55 106.45 27.65 102.35C20.85 98.15 15.55 92.25 11.75 84.65C8.05 77.05 6.2 68 6.2 57.5C6.2 47 8.05 37.95 11.75 30.35C15.55 22.75 20.85 16.9 27.65 12.8C34.55 8.6 42.7 6.5 52.1 6.5ZM52.1 17.75C41.8 17.75 33.65 21.25 27.65 28.25C21.75 35.25 18.8 45 18.8 57.5C18.8 69.9 21.75 79.65 27.65 86.75C33.65 93.75 41.8 97.25 52.1 97.25C62.4 97.25 70.5 93.75 76.4 86.75C82.4 79.65 85.4 69.9 85.4 57.5C85.4 45 82.4 35.25 76.4 28.25C70.5 21.25 62.4 17.75 52.1 17.75Z" fill="#A9D8CE"/>
<path d="M76.4 12.8L73.247 17.9048L73.2908 17.9318L73.335 17.9581L76.4 12.8ZM92.3 30.35L86.9053 32.9763L86.9192 33.0049L86.9334 33.0333L92.3 30.35ZM92.3 84.65L86.9334 81.9667L86.9192 81.9951L86.9053 82.0237L92.3 84.65ZM76.4 102.35L79.4981 107.488L79.5089 107.482L79.5197 107.475L76.4 102.35ZM27.65 102.35L24.497 107.455L24.5408 107.482L24.585 107.508L27.65 102.35ZM11.75 84.65L6.35534 87.2763L6.36924 87.3049L6.38344 87.3333L11.75 84.65ZM11.75 30.35L6.38344 27.6667L6.36924 27.6951L6.35534 27.7236L11.75 30.35ZM27.65 12.8L30.7481 17.9383L30.7589 17.9318L30.7697 17.9252L27.65 12.8ZM27.65 28.25L23.0945 24.3452L23.0783 24.3641L23.0622 24.3832L27.65 28.25ZM27.65 86.75L23.0354 90.5847L23.0646 90.62L23.0945 90.6547L27.65 86.75ZM76.4 86.75L71.8172 82.8772L71.8122 82.8832L76.4 86.75ZM76.4 28.25L71.8122 32.1168L71.8283 32.1358L71.8445 32.1547L76.4 28.25ZM52.1 12.5C60.5851 12.5 67.5505 14.3864 73.247 17.9048L79.553 7.69521C71.6495 2.81364 62.4149 0.499996 52.1 0.499996V12.5ZM73.335 17.9581C79.1731 21.4271 83.6894 26.3707 86.9053 32.9763L97.6947 27.7236C93.5106 19.1293 87.4269 12.3729 79.465 7.6419L73.335 17.9581ZM86.9334 33.0333C90.2302 39.6269 92 47.7162 92 57.5H104C104 46.2838 101.97 36.2731 97.6666 27.6667L86.9334 33.0333ZM92 57.5C92 67.2838 90.2302 75.3731 86.9334 81.9667L97.6666 87.3333C101.97 78.7269 104 68.7162 104 57.5H92ZM86.9053 82.0237C83.684 88.6404 79.1514 93.6511 73.2803 97.2248L79.5197 107.475C87.4486 102.649 93.516 95.8596 97.6947 87.2763L86.9053 82.0237ZM73.3019 97.2117C67.5964 100.652 60.6107 102.5 52.1 102.5V114.5C62.3893 114.5 71.6036 112.248 79.4981 107.488L73.3019 97.2117ZM52.1 102.5C43.5921 102.5 36.5392 100.653 30.715 97.1919L24.585 107.508C32.5608 112.247 41.8079 114.5 52.1 114.5V102.5ZM30.803 97.2452C25.0121 93.6685 20.4508 88.6353 17.1166 81.9667L6.38344 87.3333C10.6492 95.8647 16.6879 102.632 24.497 107.455L30.803 97.2452ZM17.1447 82.0237C13.9276 75.4157 12.2 67.3053 12.2 57.5H0.200001C0.200001 68.6947 2.17239 78.6843 6.35534 87.2763L17.1447 82.0237ZM12.2 57.5C12.2 47.6947 13.9276 39.5843 17.1447 32.9763L6.35534 27.7236C2.17239 36.3157 0.200001 46.3053 0.200001 57.5H12.2ZM17.1166 33.0333C20.4454 26.3756 24.9904 21.4098 30.7481 17.9383L24.5519 7.66172C16.7096 12.3902 10.6546 19.1244 6.38344 27.6667L17.1166 33.0333ZM30.7697 17.9252C36.5849 14.3855 43.6176 12.5 52.1 12.5V0.499996C41.7824 0.499996 32.5151 2.81448 24.5303 7.6748L30.7697 17.9252ZM52.1 11.75C40.2788 11.75 30.3762 15.8499 23.0945 24.3452L32.2055 32.1547C36.9238 26.6501 43.3212 23.75 52.1 23.75V11.75ZM23.0622 24.3832C15.9649 32.8037 12.8 44.1016 12.8 57.5H24.8C24.8 45.8984 27.5351 37.6962 32.2378 32.1168L23.0622 24.3832ZM12.8 57.5C12.8 70.8184 15.9738 82.087 23.0354 90.5847L32.2647 82.9153C27.5262 77.213 24.8 68.9816 24.8 57.5H12.8ZM23.0945 90.6547C30.3762 99.1501 40.2788 103.25 52.1 103.25V91.25C43.3212 91.25 36.9238 88.3499 32.2055 82.8453L23.0945 90.6547ZM52.1 103.25C63.9204 103.25 73.7967 99.1486 80.9878 90.6168L71.8122 82.8832C67.2033 88.3514 60.8796 91.25 52.1 91.25V103.25ZM80.9828 90.6228C88.1649 82.1239 91.4 70.8405 91.4 57.5H79.4C79.4 68.9595 76.6351 77.1761 71.8172 82.8772L80.9828 90.6228ZM91.4 57.5C91.4 44.0795 88.174 32.7667 80.9555 24.3452L71.8445 32.1547C76.6261 37.7333 79.4 45.9205 79.4 57.5H91.4ZM80.9878 24.3832C73.7967 15.8514 63.9204 11.75 52.1 11.75V23.75C60.8796 23.75 67.2033 26.6485 71.8122 32.1168L80.9878 24.3832Z" fill="#173D58"/>
</svg>
