<svg width="46" height="43" viewBox="0 0 46 43" fill="none" xmlns="http://www.w3.org/2000/svg">
<path d="M45.5678 19C45.5678 34 39.0327 42 25.7779 42C7.51477 42 1.1912 35.9787 1.1912 23C-3.80878 6.67508 7.72621 0 20.9811 0C34.2359 0 45.5678 4 45.5678 19Z" fill="#FDD68B"/>
<g filter="url(#filter0_b)">
<path d="M24.8982 21.8L20.2182 35H16.1782L11.4782 21.8H15.0982L17.5182 29.78L18.2382 32.38L18.9382 29.82L21.3982 21.8H24.8982ZM29.5105 32.34H36.1305V35H26.0705V21.8H29.5105V32.34Z" fill="#173D58"/>
</g>
<g filter="url(#filter1_b)">
<path d="M20.4004 11.3984C20.4863 11.4609 20.5488 11.5078 20.5879 11.5391C20.6348 11.5625 20.6699 11.582 20.6934 11.5977C20.7246 11.6133 20.752 11.6328 20.7754 11.6562C20.8066 11.6797 20.8535 11.7148 20.916 11.7617C20.877 11.8477 20.8574 11.9141 20.8574 11.9609C20.8574 12.0078 20.8613 12.0547 20.8691 12.1016C20.877 12.1406 20.8848 12.1836 20.8926 12.2305C20.9082 12.2773 20.9121 12.3398 20.9043 12.418C20.4746 12.6914 20.0918 12.9102 19.7559 13.0742C19.4277 13.2305 19.1074 13.3672 18.7949 13.4844C18.4902 13.6016 18.1699 13.7148 17.834 13.8242C17.5059 13.9258 17.123 14.0625 16.6855 14.2344C16.8652 14.3438 17.0957 14.4414 17.377 14.5273C17.666 14.6055 17.9512 14.6992 18.2324 14.8086C18.5215 14.9102 18.7832 15.0391 19.0176 15.1953C19.252 15.3516 19.4082 15.5547 19.4863 15.8047C19.5957 15.8125 19.6895 15.875 19.7676 15.9922C19.8535 16.1094 19.8887 16.2461 19.873 16.4023C19.7949 16.4492 19.7207 16.5039 19.6504 16.5664C19.5879 16.6211 19.5059 16.6641 19.4043 16.6953C19.3184 16.7109 19.2051 16.7031 19.0645 16.6719C18.9316 16.6406 18.7832 16.5977 18.6191 16.543C18.4629 16.4883 18.2949 16.4297 18.1152 16.3672C17.9434 16.3047 17.7793 16.2539 17.623 16.2148C17.4668 16.1758 17.2949 16.1406 17.1074 16.1094C16.9277 16.0781 16.7598 16.0312 16.6035 15.9688C16.5332 15.9375 16.4707 15.9023 16.416 15.8633C16.3691 15.8164 16.3105 15.7852 16.2402 15.7695C16.0996 15.7461 15.9473 15.7031 15.7832 15.6406C15.627 15.5703 15.4668 15.4961 15.3027 15.418C15.1387 15.3398 14.9746 15.2617 14.8105 15.1836C14.6543 15.1055 14.5059 15.0352 14.3652 14.9727C14.373 14.9258 14.3223 14.8672 14.2129 14.7969C14.1035 14.7266 13.9863 14.6875 13.8613 14.6797C13.8613 14.5859 13.8223 14.5039 13.7441 14.4336C13.6738 14.3555 13.6191 14.2695 13.5801 14.1758C13.4941 13.957 13.5254 13.75 13.6738 13.5547C13.8223 13.3594 14.0449 13.2422 14.3418 13.2031C14.4355 13.2344 14.5059 13.25 14.5527 13.25C14.6074 13.2422 14.6777 13.2578 14.7637 13.2969C14.9043 13.2031 15.0723 13.1133 15.2676 13.0273C15.4707 12.9336 15.666 12.9062 15.8535 12.9453C15.877 12.8828 15.9199 12.8516 15.9824 12.8516C16.0527 12.8516 16.0957 12.8164 16.1113 12.7461C16.4316 12.6914 16.7441 12.6055 17.0488 12.4883C17.3535 12.3711 17.6504 12.2461 17.9395 12.1133C18.2285 11.9727 18.5059 11.8359 18.7715 11.7031C19.0449 11.5625 19.3066 11.4375 19.5566 11.3281C19.666 11.3594 19.7676 11.3594 19.8613 11.3281C19.9551 11.2891 20.0527 11.2734 20.1543 11.2812C20.1309 11.3047 20.127 11.3203 20.1426 11.3281C20.1582 11.3359 20.1816 11.3438 20.2129 11.3516C20.2441 11.3516 20.2754 11.3555 20.3066 11.3633C20.3457 11.3633 20.377 11.375 20.4004 11.3984ZM24.4316 10.4258C24.5723 10.3242 24.7246 10.1602 24.8887 9.93359C25.0527 9.69922 25.2246 9.46875 25.4043 9.24219C25.5918 9.01562 25.7793 8.82031 25.9668 8.65625C26.1621 8.48438 26.3574 8.41016 26.5527 8.43359C26.6777 8.71484 26.7441 8.99609 26.752 9.27734C26.7598 9.55078 26.7324 9.86328 26.6699 10.2148C26.5996 10.3008 26.498 10.418 26.3652 10.5664C26.2324 10.7148 26.084 10.8828 25.9199 11.0703C25.7637 11.25 25.5996 11.4375 25.4277 11.6328C25.2559 11.8281 25.0918 12.0156 24.9355 12.1953C24.7871 12.375 24.6543 12.5391 24.5371 12.6875C24.4277 12.8359 24.3535 12.9531 24.3145 13.0391C24.2051 13.1562 24.0566 13.3203 23.8691 13.5312C23.6895 13.7422 23.502 13.9648 23.3066 14.1992C23.1113 14.4336 22.9199 14.6641 22.7324 14.8906C22.5527 15.1094 22.4043 15.293 22.2871 15.4414C22.2793 15.4805 22.291 15.5156 22.3223 15.5469C22.3535 15.5781 22.377 15.6133 22.3926 15.6523C22.3066 15.7305 22.2559 15.8047 22.2402 15.875C22.2246 15.9375 22.2207 16.0039 22.2285 16.0742C22.2363 16.1445 22.248 16.2148 22.2637 16.2852C22.2793 16.3477 22.2832 16.418 22.2754 16.4961C22.2207 16.543 22.1738 16.5977 22.1348 16.6602C22.1035 16.7227 22.0684 16.7852 22.0293 16.8477C21.998 16.9023 21.9551 16.957 21.9004 17.0117C21.8535 17.0664 21.791 17.1133 21.7129 17.1523C21.5488 17.1367 21.416 17.1133 21.3145 17.082C21.2129 17.0586 21.0918 17.0352 20.9512 17.0117C20.8184 16.9023 20.7285 16.7695 20.6816 16.6133C20.6348 16.4492 20.6152 16.2852 20.623 16.1211C20.623 15.9492 20.6426 15.7812 20.6816 15.6172C20.7129 15.4453 20.748 15.2969 20.7871 15.1719C20.873 15.1172 20.877 15.0781 20.7988 15.0547C20.8301 14.9453 20.8848 14.8555 20.9629 14.7852C21.041 14.707 21.0801 14.6406 21.0801 14.5859C21.1348 14.5 21.2402 14.3711 21.3965 14.1992C21.5527 14.0195 21.7207 13.8281 21.9004 13.625C22.0879 13.4219 22.2676 13.2266 22.4395 13.0391C22.6113 12.8438 22.7441 12.6914 22.8379 12.582C22.8848 12.457 22.9902 12.2969 23.1543 12.1016C23.3262 11.8984 23.502 11.6914 23.6816 11.4805C23.8691 11.2695 24.0371 11.0703 24.1855 10.8828C24.3418 10.6953 24.4238 10.543 24.4316 10.4258ZM32.4238 13.2969C32.4238 13.3906 32.459 13.4766 32.5293 13.5547C32.6074 13.625 32.666 13.707 32.7051 13.8008C32.752 13.9102 32.7637 14.0195 32.7402 14.1289C32.7246 14.2383 32.6816 14.3359 32.6113 14.4219C32.541 14.5078 32.4473 14.582 32.3301 14.6445C32.2207 14.707 32.0918 14.75 31.9434 14.7734C31.8496 14.7344 31.7754 14.7188 31.7207 14.7266C31.6738 14.7344 31.6074 14.7188 31.5215 14.6797C31.3809 14.7734 31.209 14.8672 31.0059 14.9609C30.8105 15.0469 30.6191 15.0703 30.4316 15.0312C30.4082 15.0938 30.3613 15.125 30.291 15.125C30.2285 15.125 30.1895 15.1602 30.1738 15.2305C29.8535 15.2852 29.541 15.3711 29.2363 15.4883C28.9316 15.6055 28.6348 15.7344 28.3457 15.875C28.0566 16.0078 27.7754 16.1445 27.502 16.2852C27.2363 16.4258 26.9785 16.5469 26.7285 16.6484C26.6191 16.6172 26.5176 16.6211 26.4238 16.6602C26.3301 16.6914 26.2324 16.7031 26.1309 16.6953C26.1543 16.6719 26.1582 16.6562 26.1426 16.6484C26.127 16.6406 26.1035 16.6367 26.0723 16.6367C26.041 16.6289 26.0059 16.625 25.9668 16.625C25.9355 16.6172 25.9082 16.6016 25.8848 16.5781C25.7988 16.5234 25.7363 16.4805 25.6973 16.4492C25.6504 16.418 25.6152 16.3945 25.5918 16.3789C25.5605 16.3633 25.5293 16.3438 25.498 16.3203C25.4668 16.2969 25.4238 16.2617 25.3691 16.2148C25.4004 16.1367 25.4199 16.0742 25.4277 16.0273C25.4277 15.9727 25.4238 15.9258 25.416 15.8867C25.4082 15.8398 25.4004 15.793 25.3926 15.7461C25.377 15.6992 25.373 15.6367 25.3809 15.5586C25.8105 15.2852 26.1895 15.0703 26.5176 14.9141C26.8457 14.75 27.166 14.6094 27.4785 14.4922C27.791 14.375 28.1113 14.2656 28.4395 14.1641C28.7754 14.0547 29.1621 13.9141 29.5996 13.7422C29.4199 13.6406 29.1855 13.5469 28.8965 13.4609C28.6152 13.375 28.3301 13.2812 28.041 13.1797C27.7598 13.0703 27.502 12.9375 27.2676 12.7812C27.0332 12.625 26.877 12.4219 26.7988 12.1719C26.6895 12.1641 26.5918 12.1016 26.5059 11.9844C26.4277 11.8672 26.3965 11.7305 26.4121 11.5742C26.4902 11.5273 26.5605 11.4766 26.623 11.4219C26.6934 11.3594 26.7793 11.3125 26.8809 11.2812C26.9668 11.2656 27.0762 11.2734 27.209 11.3047C27.3496 11.3359 27.498 11.3789 27.6543 11.4336C27.8184 11.4883 27.9863 11.5469 28.1582 11.6094C28.3379 11.6719 28.5059 11.7227 28.6621 11.7617C28.8184 11.8008 28.9863 11.8359 29.166 11.8672C29.3535 11.8984 29.5254 11.9453 29.6816 12.0078C29.752 12.0391 29.8105 12.0781 29.8574 12.125C29.9121 12.1641 29.9746 12.1914 30.0449 12.207C30.1855 12.2305 30.334 12.2773 30.4902 12.3477C30.6543 12.4102 30.8184 12.4805 30.9824 12.5586C31.1465 12.6367 31.3066 12.7188 31.4629 12.8047C31.627 12.8828 31.7793 12.9492 31.9199 13.0039C31.9121 13.0508 31.9629 13.1094 32.0723 13.1797C32.1816 13.25 32.2988 13.2891 32.4238 13.2969Z" fill="#173D58"/>
</g>
<defs>
<filter id="filter0_b" x="7.47821" y="17.8" width="32.6523" height="21.2" filterUnits="userSpaceOnUse" color-interpolation-filters="sRGB">
<feFlood flood-opacity="0" result="BackgroundImageFix"/>
<feGaussianBlur in="BackgroundImage" stdDeviation="2"/>
<feComposite in2="SourceAlpha" operator="in" result="effect1_backgroundBlur"/>
<feBlend mode="normal" in="SourceGraphic" in2="effect1_backgroundBlur" result="shape"/>
</filter>
<filter id="filter1_b" x="9.53281" y="4.42937" width="27.2191" height="16.723" filterUnits="userSpaceOnUse" color-interpolation-filters="sRGB">
<feFlood flood-opacity="0" result="BackgroundImageFix"/>
<feGaussianBlur in="BackgroundImage" stdDeviation="2"/>
<feComposite in2="SourceAlpha" operator="in" result="effect1_backgroundBlur"/>
<feBlend mode="normal" in="SourceGraphic" in2="effect1_backgroundBlur" result="shape"/>
</filter>
</defs>
</svg>
